<svg xmlns="http://www.w3.org/2000/svg" width="1024" height="1024" viewBox="0 0 1024 1024" version="1.1"><path d="M 474.623 190.161 C 470.291 190.655, 461.516 192.469, 455.123 194.191 C 448.730 195.912, 441.700 197.523, 439.500 197.769 C 435.087 198.263, 432.527 200.080, 430.372 204.248 C 429.295 206.330, 428.213 207, 425.925 207 C 424.261 207, 421.461 207.772, 419.700 208.715 C 412.044 212.819, 409.098 213.907, 409.668 212.424 C 410.799 209.476, 409.661 209.944, 382.500 223.583 C 361.565 234.097, 344.710 244.435, 327.369 257.397 C 311.090 269.565, 299.681 279.782, 297.360 284.270 C 296.508 285.919, 295.302 286.946, 294.556 286.660 C 293.403 286.217, 287.167 292.386, 281.069 300 L 279.067 302.500 279.033 300.128 C 278.985 296.671, 276.633 298.943, 275.156 303.873 C 274.465 306.179, 273.232 307.967, 272.136 308.254 C 271.116 308.521, 269.964 310.006, 269.576 311.555 C 268.737 314.897, 261.109 328, 260.003 328 C 259.579 328, 258.970 326.994, 258.649 325.765 C 258.071 323.556, 258.047 323.553, 256.564 325.515 C 255.739 326.607, 255.049 328.261, 255.032 329.191 C 255.014 330.121, 254.605 331.126, 254.123 331.424 C 253.641 331.722, 252.203 334.537, 250.928 337.678 C 249.380 341.491, 246.688 345.312, 242.834 349.166 C 236.850 355.150, 233.207 361.389, 227.917 374.712 C 226.217 378.996, 224.447 382.957, 223.984 383.517 C 222.803 384.944, 218 399.479, 218 401.626 C 218 404.816, 219.651 401.704, 222.045 394 C 224.301 386.740, 226 383.235, 226 385.840 C 226 386.522, 224.455 391.675, 222.567 397.290 C 220.679 402.906, 218.219 411.100, 217.102 415.500 C 215.984 419.900, 213.969 426.650, 212.624 430.500 C 209.548 439.306, 206.445 464.797, 204.818 494.638 L 203.620 516.600 207.381 542.966 C 211.341 570.728, 213.580 580.049, 223.246 609 C 229.184 626.785, 243.309 656.036, 253.207 671.042 C 262.315 684.854, 281.455 709.431, 289 717.005 C 296.421 724.454, 314.002 738.900, 319.680 742.214 C 323.625 744.517, 332.611 751.325, 337 755.337 C 340.512 758.547, 353.657 767.341, 358.847 769.952 C 361.237 771.155, 367.285 773.701, 372.287 775.609 C 377.288 777.518, 385.324 781.356, 390.144 784.137 C 394.963 786.919, 401.654 790.304, 405.011 791.660 C 411.059 794.103, 449.032 804.302, 449.677 803.656 C 449.862 803.472, 446.747 802.062, 442.756 800.524 C 438.765 798.986, 435.050 797.282, 434.500 796.738 C 433.837 796.084, 434.006 795.938, 435 796.306 C 452.972 802.969, 474.935 808.666, 493.688 811.528 C 507.088 813.572, 544.819 813.535, 560.643 811.460 C 582.534 808.591, 623.624 796.535, 635 789.644 C 638.025 787.811, 643.078 784.864, 646.229 783.095 C 652.131 779.780, 655.529 776.641, 650.272 779.359 C 640.805 784.255, 608.485 795.818, 607.374 794.707 C 606.773 794.106, 616.490 790, 618.512 790 C 624.137 790, 658.368 774.141, 679 761.976 C 690.752 755.047, 704.991 743.789, 707.110 739.751 C 708.286 737.510, 708.281 737.508, 706.139 739.411 C 704.955 740.462, 702.977 741.826, 701.743 742.440 C 700.509 743.055, 698.913 744.783, 698.195 746.279 C 697.478 747.776, 696.314 749, 695.608 749 C 694.903 749, 691.748 750.846, 688.598 753.102 C 681.235 758.374, 680.215 757.588, 687.389 752.171 C 695.342 746.167, 710.537 731.450, 715.667 724.783 C 718.114 721.602, 720.739 719, 721.499 719 C 723.117 719, 738.281 703.583, 746.580 693.500 C 759.244 678.113, 777.327 647.501, 785.968 626.818 C 788.193 621.493, 791.498 612.268, 793.312 606.318 C 795.137 600.332, 797.109 595.600, 797.727 595.724 C 800.627 596.306, 808.938 567.632, 813.035 542.909 C 815.716 526.731, 816.252 495.670, 814.189 476 C 813.047 465.102, 809.055 440.851, 807.504 435.379 C 807.210 434.346, 807.606 434.850, 808.383 436.500 C 809.160 438.150, 810.661 443.726, 811.718 448.891 C 813.606 458.112, 813.664 458.226, 814.925 455.182 C 816.526 451.316, 814.363 440.615, 806.994 415.948 C 801.286 396.840, 797.900 388.246, 790.860 375 C 781.339 357.086, 755.575 314.692, 752.328 311.596 C 750.542 309.893, 748.138 307.600, 746.984 306.500 C 745.831 305.400, 742.493 301.201, 739.568 297.170 C 724.926 276.994, 714.213 267.226, 678.605 241.583 C 673.323 237.779, 669.189 234.477, 669.421 234.246 C 669.652 234.015, 673.589 236.286, 678.170 239.293 C 682.752 242.300, 688.075 245.602, 690 246.630 C 691.925 247.659, 695.200 249.800, 697.277 251.389 C 701.152 254.354, 703.368 254.353, 700.907 251.388 C 698.976 249.061, 693.822 245.922, 676 236.216 C 667.475 231.573, 659.375 227.001, 658 226.057 C 656.625 225.113, 649.650 221.853, 642.500 218.813 C 611.209 205.510, 559.332 191.572, 547.907 193.399 C 545.491 193.785, 542.133 193.457, 539.233 192.551 C 528.894 189.321, 493.463 188.010, 474.623 190.161 M 655.508 233.281 C 664.312 237.802, 673.001 242.562, 674.815 243.859 C 676.630 245.157, 678.335 245.998, 678.604 245.730 C 679.267 245.067, 666.864 236.970, 659.460 233.232 C 653.344 230.145, 641.125 224.975, 640.078 225.031 C 639.760 225.048, 646.704 228.761, 655.508 233.281 M 522.559 235.656 L 526.500 236.960 522 236.335 C 513.651 235.177, 484.070 236.073, 480.429 237.594 C 476.361 239.294, 468.318 239.453, 467.782 237.845 C 467.295 236.385, 447.863 239.391, 440.500 242.066 C 437.750 243.065, 433.709 244.204, 431.520 244.596 C 429.331 244.988, 426.181 246.138, 424.520 247.151 C 422.859 248.164, 420.808 248.994, 419.961 248.996 C 419.115 248.998, 416.640 249.949, 414.461 251.109 C 412.283 252.269, 407.108 254.915, 402.963 256.989 C 398.818 259.064, 392.518 262.539, 388.963 264.712 C 385.408 266.885, 377.781 271.086, 372.013 274.046 C 365.005 277.643, 358.885 281.763, 353.566 286.465 C 349.189 290.334, 337.933 299.904, 328.553 307.731 C 319.174 315.559, 310.825 323.039, 310 324.354 C 309.175 325.669, 304.758 330.965, 300.184 336.123 C 294.989 341.981, 290.462 348.315, 288.120 353 C 281.456 366.337, 273.864 380.461, 272.532 382 C 265.784 389.794, 254.942 422.907, 249.577 452.110 C 244.425 480.152, 243.953 516.265, 248.422 540.500 C 251.864 559.164, 256.325 577.771, 261.008 593 C 263.122 599.875, 265.097 606.652, 265.397 608.059 C 265.974 610.765, 266.749 611.919, 276.892 625.157 C 283.166 633.345, 290 645.830, 290 649.102 C 290 650.014, 292.363 652.544, 295.250 654.725 C 300.764 658.889, 301.120 659.429, 305.509 670.282 C 308.404 677.440, 310.060 679, 314.758 679 C 318.764 679, 324.669 674.548, 340.509 659.583 C 354.483 646.382, 366.625 632.128, 377.211 616.500 C 380.564 611.550, 384.109 606.600, 385.090 605.500 C 386.070 604.400, 388.197 599.450, 389.817 594.500 C 391.436 589.550, 394.615 580.601, 396.881 574.614 C 399.146 568.627, 400.986 563.227, 400.968 562.614 C 400.876 559.397, 397.835 557.696, 389.901 556.426 C 381.492 555.080, 376.105 552.632, 383.586 553.556 L 387.500 554.040 383.213 552.046 C 380.856 550.949, 375.429 546.777, 371.153 542.775 C 366.877 538.774, 361.462 533.849, 359.120 531.831 C 355.464 528.682, 354.906 527.691, 355.181 524.831 C 355.450 522.019, 356.201 521.141, 360 519.193 C 363.187 517.560, 365.521 517.040, 368 517.411 C 370.302 517.756, 374.580 516.968, 380.500 515.109 C 385.450 513.555, 394.225 511.267, 400 510.025 C 405.775 508.784, 411.210 507.145, 412.079 506.384 C 412.947 505.623, 414.297 504.999, 415.079 504.998 C 416.676 504.995, 423.157 490.391, 425.064 482.500 C 425.728 479.750, 426.596 477.137, 426.992 476.694 C 428.602 474.891, 454.965 480.855, 464.150 485.099 C 467.843 486.806, 468.926 487.880, 469.414 490.322 C 469.752 492.012, 470.726 494.458, 471.577 495.757 C 473.116 498.106, 473.203 498.116, 487.312 497.524 C 495.115 497.196, 507.350 496.717, 514.500 496.460 C 521.650 496.203, 530.650 495.566, 534.500 495.046 C 538.350 494.525, 542.850 494.125, 544.500 494.157 C 546.150 494.190, 551.663 494.167, 556.750 494.108 L 566 494 566 489.014 C 566 486.272, 566.427 482.110, 566.948 479.764 C 568.972 470.660, 570.887 460.275, 571.456 455.315 L 572.052 450.130 567.463 449.442 C 564.939 449.064, 560.941 448.972, 558.579 449.238 C 556.083 449.520, 553.289 449.190, 551.908 448.451 C 550.417 447.653, 548.923 447.506, 547.895 448.056 C 546.319 448.900, 541.025 447.245, 541.008 445.904 C 540.995 444.900, 530.576 448.771, 530.193 449.922 C 529.681 451.456, 526.720 451.255, 524.441 449.532 C 522.154 447.802, 499 447.300, 499 448.981 C 499 450.059, 501.664 450.815, 506.923 451.230 C 508.806 451.379, 510.538 452.083, 510.772 452.796 C 511.100 453.795, 509.516 454.024, 503.849 453.796 C 497.565 453.543, 496.520 453.246, 496.639 451.750 C 496.719 450.743, 496.082 449.994, 495.139 449.986 C 494.238 449.979, 492.488 449.701, 491.250 449.370 C 488.382 448.601, 488.304 450.384, 491.150 451.654 C 492.689 452.340, 489.691 452.674, 480.621 452.826 C 471.856 452.973, 467.255 452.647, 465.720 451.769 C 463.681 450.603, 456.757 450.033, 444.819 450.048 C 430.946 450.065, 402.523 445.489, 382.239 439.974 C 373.783 437.675, 365.188 432.313, 356.500 423.916 C 345.048 412.847, 341.820 410.227, 337.386 408.399 C 331.784 406.089, 330.687 403.037, 334.128 399.342 C 339.143 393.956, 357.030 381, 359.450 381 C 359.753 381, 360 381.482, 360 382.071 C 360 383.822, 363.200 386.492, 365.428 386.601 C 381.209 387.368, 400.095 390.737, 417.993 395.977 C 419.915 396.540, 425.147 397, 429.621 397 C 434.268 397, 439.201 397.594, 441.128 398.387 C 445.984 400.383, 475.140 401.467, 487.010 400.092 C 492.229 399.488, 507.075 398.334, 520 397.528 C 532.925 396.722, 548 395.379, 553.500 394.543 C 566.031 392.639, 587.051 388.310, 593.034 386.401 C 595.527 385.606, 603.177 384.533, 610.034 384.018 C 616.890 383.503, 624.075 382.629, 626 382.075 C 632.819 380.115, 650.604 376.723, 658 375.972 C 662.125 375.554, 667.975 374.742, 671 374.168 C 674.025 373.594, 679.783 372.968, 683.796 372.777 C 691.084 372.430, 691.091 372.432, 690.796 374.951 C 690.610 376.538, 689.283 378.220, 687.218 379.486 C 685.414 380.594, 680.757 384.109, 676.871 387.297 L 669.804 393.095 674.805 392.431 C 679.253 391.841, 679.932 392.004, 680.949 393.905 C 682.369 396.558, 681.999 397.159, 676.514 401.098 C 674.087 402.840, 671.423 405.695, 670.594 407.442 C 669.765 409.189, 667.385 411.829, 665.305 413.309 C 661.645 415.914, 661.607 416, 664.139 416 C 667.102 416, 669.488 418.286, 668.691 420.362 C 668.399 421.125, 665.986 422.068, 663.330 422.457 C 654.221 423.793, 646.047 429, 653.059 429 C 654.127 429, 655 429.585, 655 430.300 C 655 432.466, 652.771 433.998, 649.550 434.044 C 647.872 434.068, 644.700 434.772, 642.500 435.609 C 640.300 436.446, 634.024 438.339, 628.554 439.815 L 618.608 442.500 615.307 448 C 613.492 451.025, 611.771 455.075, 611.483 457 C 611.195 458.925, 610.062 465.450, 608.964 471.500 C 607.866 477.550, 606.975 485.140, 606.984 488.367 L 607 494.233 609.750 493.630 C 611.263 493.299, 617.450 492.580, 623.500 492.032 C 629.550 491.485, 636.008 490.775, 637.850 490.454 C 640.047 490.072, 641.769 490.364, 642.850 491.302 C 643.758 492.088, 645.733 493.024, 647.240 493.382 C 650.621 494.185, 658.719 503.937, 656.926 505.046 C 655.355 506.017, 656.662 508, 658.872 508 C 661.316 508, 666 513.149, 666 515.836 C 666 517.077, 665.225 518.310, 664.250 518.622 C 662.107 519.307, 660.170 520.107, 652.629 523.420 C 649.400 524.839, 645.913 526, 644.879 526 C 643.846 526, 643 526.675, 643 527.500 C 643 528.681, 644.396 529, 649.566 529 C 653.177 529, 657.002 529.466, 658.066 530.035 C 660.477 531.326, 660.587 534.556, 658.250 535.471 C 655.289 536.630, 634.604 537.859, 632.950 536.973 C 632.076 536.506, 630.757 536.561, 629.946 537.100 C 629.091 537.668, 624.311 537.795, 618.250 537.411 L 608 536.761 608 539.362 C 608 540.792, 609.784 550.789, 611.965 561.577 C 615.916 581.119, 615.959 581.244, 623.428 595.588 C 629.619 607.478, 636.781 619.047, 649.446 637.614 C 650.239 638.776, 652.191 639.988, 653.783 640.307 C 655.496 640.649, 660.318 644.218, 665.589 649.045 C 677.516 659.967, 692.368 669.660, 702.998 673.460 C 707.674 675.132, 712.202 676.492, 713.059 676.483 C 713.917 676.474, 718.430 672.199, 723.088 666.983 C 727.747 661.767, 733.007 656.072, 734.779 654.327 C 737.978 651.175, 738.895 649, 737.023 649 C 736.486 649, 735.248 650.228, 734.273 651.729 C 731.709 655.676, 724.533 663, 723.230 663 C 720.582 663, 721.099 660.630, 724.602 656.712 C 735.316 644.730, 744.080 635.747, 744.575 636.242 C 744.881 636.548, 743.752 639.242, 742.066 642.230 C 738.954 647.743, 738.187 651, 740 651 C 740.550 651, 741 650.542, 741 649.983 C 741 649.424, 742.967 645.711, 745.371 641.733 C 753.094 628.952, 756.544 620.752, 757.553 612.784 C 757.749 611.235, 758.605 608.975, 759.455 607.761 C 760.305 606.548, 761 604.884, 761 604.063 C 761 601.398, 758.491 604.972, 755.955 611.250 C 754.677 614.412, 753.265 617, 752.816 617 C 751.518 617, 751.868 614.557, 753.468 612.441 C 754.276 611.374, 754.951 609.549, 754.968 608.386 C 754.986 607.223, 757.072 602.102, 759.603 597.007 C 762.847 590.479, 764.305 586.230, 764.540 582.621 C 764.723 579.805, 765.994 572.775, 767.363 567 C 768.732 561.225, 771.269 547.050, 772.999 535.500 C 777.573 504.978, 777.171 484.090, 771.489 457 C 764.455 423.467, 762.664 415.564, 759.815 405.500 C 756.280 393.008, 751.573 383.201, 744.932 374.491 C 742.420 371.196, 737.884 364.675, 734.851 360 C 731.818 355.325, 726.941 348.350, 724.012 344.500 C 721.084 340.650, 717.868 335.700, 716.866 333.500 C 715.864 331.300, 715.034 329.822, 715.022 330.216 C 715.010 330.609, 711.949 327.909, 708.221 324.216 C 698.736 314.819, 675.583 293.361, 669 287.865 C 665.975 285.340, 659.675 281.356, 655 279.012 C 650.325 276.668, 645.375 273.975, 644 273.028 C 642.625 272.080, 637 268.937, 631.500 266.042 C 626 263.148, 620.825 260.205, 620 259.504 C 616.661 256.664, 607.958 253.065, 602.887 252.429 C 599.924 252.057, 592.909 249.811, 587.297 247.438 C 574.014 241.822, 558.875 237, 554.523 237 C 552.624 237, 548.975 236.289, 546.415 235.420 C 543.452 234.414, 541.413 234.187, 540.804 234.796 C 540.237 235.363, 538.350 235.421, 536.173 234.938 C 534.153 234.489, 529.376 234.174, 525.559 234.238 L 518.618 234.352 522.559 235.656 M 352.364 244.961 C 343.129 251.200, 339.281 254.824, 346.600 250.389 C 352.711 246.686, 360.058 241.077, 358.864 241.027 C 358.514 241.012, 355.589 242.783, 352.364 244.961 M 442.193 242.561 C 439.381 243.743, 436.378 246.711, 437.180 247.513 C 437.715 248.049, 445.883 245.098, 447.750 243.695 C 450.866 241.353, 446.960 240.556, 442.193 242.561 M 523.547 297.077 C 514.833 298.397, 511.497 299.735, 508.006 303.307 C 506.290 305.063, 499.399 309.200, 492.693 312.500 L 480.500 318.500 480.500 323.995 L 480.500 329.489 475.631 332.495 C 464.801 339.180, 457.173 344.570, 451 349.900 C 447.425 352.986, 441.222 357.705, 437.216 360.385 C 428.269 366.372, 426.483 368.589, 428.348 371.397 C 429.491 373.119, 430.933 373.416, 439.084 373.602 C 444.263 373.721, 452.325 374.331, 457 374.958 C 461.675 375.585, 468.425 376.414, 472 376.799 C 475.649 377.193, 479.708 378.319, 481.254 379.368 C 484.575 381.620, 487.763 381.001, 503.415 375.061 C 533.560 363.622, 563.823 346.671, 568.070 338.846 C 569.227 336.714, 567.381 326.546, 565.210 323.093 C 558.148 311.862, 551.041 305.119, 540.497 299.646 C 534.272 296.415, 531.095 295.933, 523.547 297.077 M 261.399 318.547 C 261.047 319.947, 261.044 321.377, 261.390 321.724 C 262.149 322.482, 264.923 319.014, 264.968 317.250 C 265.028 314.906, 262.040 315.991, 261.399 318.547 M 313.500 325.957 C 310.750 329.191, 305.050 335.586, 300.834 340.168 C 296.618 344.751, 293.352 348.684, 293.577 348.909 C 294.115 349.448, 305.903 338.269, 308.485 334.770 C 309.593 333.269, 312.907 329.332, 315.849 326.020 C 318.791 322.709, 320.591 320.017, 319.849 320.039 C 319.107 320.060, 316.250 322.723, 313.500 325.957 M 514.008 449.949 C 512.908 450.663, 512.810 451.210, 513.637 452.037 C 515.235 453.635, 520.500 452.840, 520.500 451 C 520.500 449.233, 516.189 448.535, 514.008 449.949 M 610.500 534 C 606.651 534.689, 606.717 534.722, 612.250 534.858 C 615.511 534.939, 618 534.567, 618 534 C 618 532.909, 616.591 532.909, 610.500 534 M 496.500 552.554 C 490.450 553.246, 482.462 553.854, 478.750 553.906 C 475.038 553.958, 472 554.417, 472 554.928 C 472 555.438, 474.363 555.670, 477.250 555.443 C 498.864 553.743, 508.984 552.751, 512 552.035 L 515.500 551.205 511.500 551.251 C 509.300 551.276, 502.550 551.863, 496.500 552.554 M 539.500 554.667 C 535.100 554.812, 522.725 555.629, 512 556.483 C 501.275 557.336, 487.405 558.409, 481.177 558.868 C 467.697 559.860, 467.226 560.192, 464.026 570.969 C 460.413 583.140, 454.221 597.764, 449.972 604.162 C 447.787 607.451, 446 610.760, 446 611.517 C 446 613.973, 438.060 628.313, 435.094 631.212 C 433.507 632.764, 431.917 635.196, 431.560 636.617 C 431.203 638.038, 430.102 640.393, 429.113 641.850 C 428.124 643.308, 425.605 647.200, 423.514 650.500 C 416.105 662.195, 403.160 678.594, 395.880 685.509 C 385.527 695.341, 382.448 697.517, 369.719 703.990 C 363.548 707.128, 356.067 710.981, 353.093 712.553 L 347.686 715.410 356.163 719.455 C 360.826 721.680, 366.859 724.491, 369.570 725.703 C 374.566 727.935, 391.353 737.605, 400.500 743.520 C 412.007 750.960, 431.037 761.048, 441.282 765.137 C 447.181 767.492, 462.059 771.274, 462.741 770.592 C 462.988 770.346, 458.625 768.736, 453.048 767.015 C 444.365 764.335, 427 756.711, 427 755.579 C 427 755.376, 429.813 756.091, 433.250 757.167 C 444.448 760.674, 477.370 769.044, 478.449 768.658 C 479.027 768.451, 477.475 767.692, 475 766.972 C 472.525 766.252, 470.050 765.238, 469.500 764.719 C 468.862 764.117, 469.224 763.987, 470.500 764.359 C 491.883 770.606, 527.924 772.313, 551.500 768.196 C 558.650 766.947, 567.135 765.231, 570.357 764.381 C 573.578 763.532, 577.296 763.108, 578.620 763.441 C 580.132 763.820, 582.415 763.286, 584.763 762.003 C 589.473 759.430, 614.380 748.602, 623 745.380 C 637.394 740, 667.557 723.760, 667.349 721.502 C 667.299 720.953, 661.220 717.353, 653.841 713.502 C 646.462 709.651, 636.910 704.288, 632.614 701.586 C 624.434 696.438, 606.861 679.716, 599.261 669.847 C 587.403 654.451, 578.874 635.559, 573.923 613.726 C 572.274 606.452, 570.031 596.675, 568.940 592 C 567.849 587.325, 566.232 577.425, 565.348 570 C 564.464 562.575, 563.589 555.938, 563.402 555.250 C 563.063 553.999, 561.127 553.952, 539.500 554.667 M 748.548 622.907 C 747.212 625.490, 747.182 626, 748.366 626 C 749.145 626, 750.079 624.822, 750.440 623.382 C 751.395 619.579, 750.398 619.329, 748.548 622.907 M 659 648.759 C 659 649.204, 660.350 650.366, 662 651.341 C 663.650 652.316, 665 652.649, 665 652.082 C 665 651.515, 663.650 650.353, 662 649.500 C 660.350 648.647, 659 648.313, 659 648.759 M 764.500 657.757 C 761.750 663.095, 758.294 668.821, 756.820 670.481 C 754.600 672.981, 743.562 687.435, 739.622 693 C 739.038 693.825, 739.839 693.375, 741.401 692 C 748.974 685.335, 770.914 652.184, 769.836 649.034 C 769.651 648.494, 767.250 652.419, 764.500 657.757 M 343 718.025 C 343 719.864, 348.999 725, 351.146 725 C 352.209 725, 354.749 725.836, 356.790 726.858 C 358.830 727.880, 361.850 729.017, 363.500 729.384 L 366.500 730.051 364 728.041 C 361.433 725.977, 346.488 717.756, 344.250 717.177 C 343.563 716.999, 343 717.381, 343 718.025 M 640.347 741.520 C 637.514 742.815, 634.900 744.354, 634.538 744.938 C 633.564 746.515, 634.556 746.258, 639.889 743.556 C 642.738 742.113, 645.590 741.342, 646.856 741.673 C 648.395 742.075, 649 741.777, 649 740.617 C 649 738.436, 646.528 738.694, 640.347 741.520 M 634.137 748.140 C 630.638 749.772, 627.961 751.295, 628.189 751.523 C 628.873 752.207, 640.432 747.205, 640.814 746.059 C 641.251 744.748, 641.727 744.599, 634.137 748.140 M 682.724 751.052 C 679.026 753.768, 676 756.269, 676 756.610 C 676 757.347, 679.962 754.863, 685.500 750.654 C 687.700 748.982, 689.688 747.476, 689.917 747.307 C 690.146 747.138, 690.134 746.801, 689.891 746.557 C 689.647 746.314, 686.422 748.337, 682.724 751.052 M 413.444 748.910 C 414.198 750.130, 423.989 755.344, 424.524 754.810 C 424.702 754.631, 422.125 752.977, 418.798 751.133 C 415.470 749.290, 413.061 748.289, 413.444 748.910 M 485 806 C 486.375 806.440, 488.625 806.814, 490 806.830 C 492.273 806.857, 492.318 806.781, 490.500 806 C 489.400 805.527, 487.150 805.154, 485.500 805.170 C 482.575 805.199, 482.562 805.219, 485 806" stroke="none" fill="#2b0573" fill-rule="evenodd"/><path d="M 0 512.001 L 0 1024.002 512.250 1023.751 L 1024.500 1023.500 1024.751 511.750 L 1025.002 0 512.501 0 L 0 0 0 512.001 M 0.496 512.500 C 0.496 794.100, 0.610 909.151, 0.750 768.168 C 0.890 627.186, 0.890 396.786, 0.750 256.168 C 0.610 115.551, 0.496 230.900, 0.496 512.500 M 474.623 190.161 C 470.291 190.655, 461.516 192.469, 455.123 194.191 C 448.730 195.912, 441.700 197.523, 439.500 197.769 C 435.087 198.263, 432.527 200.080, 430.372 204.248 C 429.295 206.330, 428.213 207, 425.925 207 C 424.261 207, 421.461 207.772, 419.700 208.715 C 412.044 212.819, 409.098 213.907, 409.668 212.424 C 410.799 209.476, 409.661 209.944, 382.500 223.583 C 361.565 234.097, 344.710 244.435, 327.369 257.397 C 311.090 269.565, 299.681 279.782, 297.360 284.270 C 296.508 285.919, 295.302 286.946, 294.556 286.660 C 293.403 286.217, 287.167 292.386, 281.069 300 L 279.067 302.500 279.033 300.128 C 278.985 296.671, 276.633 298.943, 275.156 303.873 C 274.465 306.179, 273.232 307.967, 272.136 308.254 C 271.116 308.521, 269.964 310.006, 269.576 311.555 C 268.737 314.897, 261.109 328, 260.003 328 C 259.579 328, 258.970 326.994, 258.649 325.765 C 258.071 323.556, 258.047 323.553, 256.564 325.515 C 255.739 326.607, 255.049 328.261, 255.032 329.191 C 255.014 330.121, 254.605 331.126, 254.123 331.424 C 253.641 331.722, 252.203 334.537, 250.928 337.678 C 249.380 341.491, 246.688 345.312, 242.834 349.166 C 236.850 355.150, 233.207 361.389, 227.917 374.712 C 226.217 378.996, 224.447 382.957, 223.984 383.517 C 222.803 384.944, 218 399.479, 218 401.626 C 218 404.816, 219.651 401.704, 222.045 394 C 224.301 386.740, 226 383.235, 226 385.840 C 226 386.522, 224.455 391.675, 222.567 397.290 C 220.679 402.906, 218.219 411.100, 217.102 415.500 C 215.984 419.900, 213.969 426.650, 212.624 430.500 C 209.548 439.306, 206.445 464.797, 204.818 494.638 L 203.620 516.600 207.381 542.966 C 211.341 570.728, 213.580 580.049, 223.246 609 C 229.184 626.785, 243.309 656.036, 253.207 671.042 C 262.315 684.854, 281.455 709.431, 289 717.005 C 296.421 724.454, 314.002 738.900, 319.680 742.214 C 323.625 744.517, 332.611 751.325, 337 755.337 C 340.512 758.547, 353.657 767.341, 358.847 769.952 C 361.237 771.155, 367.285 773.701, 372.287 775.609 C 377.288 777.518, 385.324 781.356, 390.144 784.137 C 394.963 786.919, 401.654 790.304, 405.011 791.660 C 411.059 794.103, 449.032 804.302, 449.677 803.656 C 449.862 803.472, 446.747 802.062, 442.756 800.524 C 438.765 798.986, 435.050 797.282, 434.500 796.738 C 433.837 796.084, 434.006 795.938, 435 796.306 C 452.972 802.969, 474.935 808.666, 493.688 811.528 C 507.088 813.572, 544.819 813.535, 560.643 811.460 C 582.534 808.591, 623.624 796.535, 635 789.644 C 638.025 787.811, 643.078 784.864, 646.229 783.095 C 652.131 779.780, 655.529 776.641, 650.272 779.359 C 640.805 784.255, 608.485 795.818, 607.374 794.707 C 606.773 794.106, 616.490 790, 618.512 790 C 624.137 790, 658.368 774.141, 679 761.976 C 690.752 755.047, 704.991 743.789, 707.110 739.751 C 708.286 737.510, 708.281 737.508, 706.139 739.411 C 704.955 740.462, 702.977 741.826, 701.743 742.440 C 700.509 743.055, 698.913 744.783, 698.195 746.279 C 697.478 747.776, 696.314 749, 695.608 749 C 694.903 749, 691.748 750.846, 688.598 753.102 C 681.235 758.374, 680.215 757.588, 687.389 752.171 C 695.342 746.167, 710.537 731.450, 715.667 724.783 C 718.114 721.602, 720.739 719, 721.499 719 C 723.117 719, 738.281 703.583, 746.580 693.500 C 759.244 678.113, 777.327 647.501, 785.968 626.818 C 788.193 621.493, 791.498 612.268, 793.312 606.318 C 795.137 600.332, 797.109 595.600, 797.727 595.724 C 800.627 596.306, 808.938 567.632, 813.035 542.909 C 815.716 526.731, 816.252 495.670, 814.189 476 C 813.047 465.102, 809.055 440.851, 807.504 435.379 C 807.210 434.346, 807.606 434.850, 808.383 436.500 C 809.160 438.150, 810.661 443.726, 811.718 448.891 C 813.606 458.112, 813.664 458.226, 814.925 455.182 C 816.526 451.316, 814.363 440.615, 806.994 415.948 C 801.286 396.840, 797.900 388.246, 790.860 375 C 781.339 357.086, 755.575 314.692, 752.328 311.596 C 750.542 309.893, 748.138 307.600, 746.984 306.500 C 745.831 305.400, 742.493 301.201, 739.568 297.170 C 724.926 276.994, 714.213 267.226, 678.605 241.583 C 673.323 237.779, 669.189 234.477, 669.421 234.246 C 669.652 234.015, 673.589 236.286, 678.170 239.293 C 682.752 242.300, 688.075 245.602, 690 246.630 C 691.925 247.659, 695.200 249.800, 697.277 251.389 C 701.152 254.354, 703.368 254.353, 700.907 251.388 C 698.976 249.061, 693.822 245.922, 676 236.216 C 667.475 231.573, 659.375 227.001, 658 226.057 C 656.625 225.113, 649.650 221.853, 642.500 218.813 C 611.209 205.510, 559.332 191.572, 547.907 193.399 C 545.491 193.785, 542.133 193.457, 539.233 192.551 C 528.894 189.321, 493.463 188.010, 474.623 190.161 M 655.508 233.281 C 664.312 237.802, 673.001 242.562, 674.815 243.859 C 676.630 245.157, 678.335 245.998, 678.604 245.730 C 679.267 245.067, 666.864 236.970, 659.460 233.232 C 653.344 230.145, 641.125 224.975, 640.078 225.031 C 639.760 225.048, 646.704 228.761, 655.508 233.281 M 522.559 235.656 L 526.500 236.960 522 236.335 C 513.651 235.177, 484.070 236.073, 480.429 237.594 C 476.361 239.294, 468.318 239.453, 467.782 237.845 C 467.295 236.385, 447.863 239.391, 440.500 242.066 C 437.750 243.065, 433.709 244.204, 431.520 244.596 C 429.331 244.988, 426.181 246.138, 424.520 247.151 C 422.859 248.164, 420.808 248.994, 419.961 248.996 C 419.115 248.998, 416.640 249.949, 414.461 251.109 C 412.283 252.269, 407.108 254.915, 402.963 256.989 C 398.818 259.064, 392.518 262.539, 388.963 264.712 C 385.408 266.885, 377.781 271.086, 372.013 274.046 C 365.005 277.643, 358.885 281.763, 353.566 286.465 C 349.189 290.334, 337.933 299.904, 328.553 307.731 C 319.174 315.559, 310.825 323.039, 310 324.354 C 309.175 325.669, 304.758 330.965, 300.184 336.123 C 294.989 341.981, 290.462 348.315, 288.120 353 C 281.456 366.337, 273.864 380.461, 272.532 382 C 265.784 389.794, 254.942 422.907, 249.577 452.110 C 244.425 480.152, 243.953 516.265, 248.422 540.500 C 251.864 559.164, 256.325 577.771, 261.008 593 C 263.122 599.875, 265.097 606.652, 265.397 608.059 C 265.974 610.765, 266.749 611.919, 276.892 625.157 C 283.166 633.345, 290 645.830, 290 649.102 C 290 650.014, 292.363 652.544, 295.250 654.725 C 300.764 658.889, 301.120 659.429, 305.509 670.282 C 308.404 677.440, 310.060 679, 314.758 679 C 318.764 679, 324.669 674.548, 340.509 659.583 C 354.483 646.382, 366.625 632.128, 377.211 616.500 C 380.564 611.550, 384.109 606.600, 385.090 605.500 C 386.070 604.400, 388.197 599.450, 389.817 594.500 C 391.436 589.550, 394.615 580.601, 396.881 574.614 C 399.146 568.627, 400.986 563.227, 400.968 562.614 C 400.876 559.397, 397.835 557.696, 389.901 556.426 C 381.492 555.080, 376.105 552.632, 383.586 553.556 L 387.500 554.040 383.213 552.046 C 380.856 550.949, 375.429 546.777, 371.153 542.775 C 366.877 538.774, 361.462 533.849, 359.120 531.831 C 355.464 528.682, 354.906 527.691, 355.181 524.831 C 355.450 522.019, 356.201 521.141, 360 519.193 C 363.187 517.560, 365.521 517.040, 368 517.411 C 370.302 517.756, 374.580 516.968, 380.500 515.109 C 385.450 513.555, 394.225 511.267, 400 510.025 C 405.775 508.784, 411.210 507.145, 412.079 506.384 C 412.947 505.623, 414.297 504.999, 415.079 504.998 C 416.676 504.995, 423.157 490.391, 425.064 482.500 C 425.728 479.750, 426.596 477.137, 426.992 476.694 C 428.602 474.891, 454.965 480.855, 464.150 485.099 C 467.843 486.806, 468.926 487.880, 469.414 490.322 C 469.752 492.012, 470.726 494.458, 471.577 495.757 C 473.116 498.106, 473.203 498.116, 487.312 497.524 C 495.115 497.196, 507.350 496.717, 514.500 496.460 C 521.650 496.203, 530.650 495.566, 534.500 495.046 C 538.350 494.525, 542.850 494.125, 544.500 494.157 C 546.150 494.190, 551.663 494.167, 556.750 494.108 L 566 494 566 489.014 C 566 486.272, 566.427 482.110, 566.948 479.764 C 568.972 470.660, 570.887 460.275, 571.456 455.315 L 572.052 450.130 567.463 449.442 C 564.939 449.064, 560.941 448.972, 558.579 449.238 C 556.083 449.520, 553.289 449.190, 551.908 448.451 C 550.417 447.653, 548.923 447.506, 547.895 448.056 C 546.319 448.900, 541.025 447.245, 541.008 445.904 C 540.995 444.900, 530.576 448.771, 530.193 449.922 C 529.681 451.456, 526.720 451.255, 524.441 449.532 C 522.154 447.802, 499 447.300, 499 448.981 C 499 450.059, 501.664 450.815, 506.923 451.230 C 508.806 451.379, 510.538 452.083, 510.772 452.796 C 511.100 453.795, 509.516 454.024, 503.849 453.796 C 497.565 453.543, 496.520 453.246, 496.639 451.750 C 496.719 450.743, 496.082 449.994, 495.139 449.986 C 494.238 449.979, 492.488 449.701, 491.250 449.370 C 488.382 448.601, 488.304 450.384, 491.150 451.654 C 492.689 452.340, 489.691 452.674, 480.621 452.826 C 471.856 452.973, 467.255 452.647, 465.720 451.769 C 463.681 450.603, 456.757 450.033, 444.819 450.048 C 430.946 450.065, 402.523 445.489, 382.239 439.974 C 373.783 437.675, 365.188 432.313, 356.500 423.916 C 345.048 412.847, 341.820 410.227, 337.386 408.399 C 331.784 406.089, 330.687 403.037, 334.128 399.342 C 339.143 393.956, 357.030 381, 359.450 381 C 359.753 381, 360 381.482, 360 382.071 C 360 383.822, 363.200 386.492, 365.428 386.601 C 381.209 387.368, 400.095 390.737, 417.993 395.977 C 419.915 396.540, 425.147 397, 429.621 397 C 434.268 397, 439.201 397.594, 441.128 398.387 C 445.984 400.383, 475.140 401.467, 487.010 400.092 C 492.229 399.488, 507.075 398.334, 520 397.528 C 532.925 396.722, 548 395.379, 553.500 394.543 C 566.031 392.639, 587.051 388.310, 593.034 386.401 C 595.527 385.606, 603.177 384.533, 610.034 384.018 C 616.890 383.503, 624.075 382.629, 626 382.075 C 632.819 380.115, 650.604 376.723, 658 375.972 C 662.125 375.554, 667.975 374.742, 671 374.168 C 674.025 373.594, 679.783 372.968, 683.796 372.777 C 691.084 372.430, 691.091 372.432, 690.796 374.951 C 690.610 376.538, 689.283 378.220, 687.218 379.486 C 685.414 380.594, 680.757 384.109, 676.871 387.297 L 669.804 393.095 674.805 392.431 C 679.253 391.841, 679.932 392.004, 680.949 393.905 C 682.369 396.558, 681.999 397.159, 676.514 401.098 C 674.087 402.840, 671.423 405.695, 670.594 407.442 C 669.765 409.189, 667.385 411.829, 665.305 413.309 C 661.645 415.914, 661.607 416, 664.139 416 C 667.102 416, 669.488 418.286, 668.691 420.362 C 668.399 421.125, 665.986 422.068, 663.330 422.457 C 654.221 423.793, 646.047 429, 653.059 429 C 654.127 429, 655 429.585, 655 430.300 C 655 432.466, 652.771 433.998, 649.550 434.044 C 647.872 434.068, 644.700 434.772, 642.500 435.609 C 640.300 436.446, 634.024 438.339, 628.554 439.815 L 618.608 442.500 615.307 448 C 613.492 451.025, 611.771 455.075, 611.483 457 C 611.195 458.925, 610.062 465.450, 608.964 471.500 C 607.866 477.550, 606.975 485.140, 606.984 488.367 L 607 494.233 609.750 493.630 C 611.263 493.299, 617.450 492.580, 623.500 492.032 C 629.550 491.485, 636.008 490.775, 637.850 490.454 C 640.047 490.072, 641.769 490.364, 642.850 491.302 C 643.758 492.088, 645.733 493.024, 647.240 493.382 C 650.621 494.185, 658.719 503.937, 656.926 505.046 C 655.355 506.017, 656.662 508, 658.872 508 C 661.316 508, 666 513.149, 666 515.836 C 666 517.077, 665.225 518.310, 664.250 518.622 C 662.107 519.307, 660.170 520.107, 652.629 523.420 C 649.400 524.839, 645.913 526, 644.879 526 C 643.846 526, 643 526.675, 643 527.500 C 643 528.681, 644.396 529, 649.566 529 C 653.177 529, 657.002 529.466, 658.066 530.035 C 660.477 531.326, 660.587 534.556, 658.250 535.471 C 655.289 536.630, 634.604 537.859, 632.950 536.973 C 632.076 536.506, 630.757 536.561, 629.946 537.100 C 629.091 537.668, 624.311 537.795, 618.250 537.411 L 608 536.761 608 539.362 C 608 540.792, 609.784 550.789, 611.965 561.577 C 615.916 581.119, 615.959 581.244, 623.428 595.588 C 629.619 607.478, 636.781 619.047, 649.446 637.614 C 650.239 638.776, 652.191 639.988, 653.783 640.307 C 655.496 640.649, 660.318 644.218, 665.589 649.045 C 677.516 659.967, 692.368 669.660, 702.998 673.460 C 707.674 675.132, 712.202 676.492, 713.059 676.483 C 713.917 676.474, 718.430 672.199, 723.088 666.983 C 727.747 661.767, 733.007 656.072, 734.779 654.327 C 737.978 651.175, 738.895 649, 737.023 649 C 736.486 649, 735.248 650.228, 734.273 651.729 C 731.709 655.676, 724.533 663, 723.230 663 C 720.582 663, 721.099 660.630, 724.602 656.712 C 735.316 644.730, 744.080 635.747, 744.575 636.242 C 744.881 636.548, 743.752 639.242, 742.066 642.230 C 738.954 647.743, 738.187 651, 740 651 C 740.550 651, 741 650.542, 741 649.983 C 741 649.424, 742.967 645.711, 745.371 641.733 C 753.094 628.952, 756.544 620.752, 757.553 612.784 C 757.749 611.235, 758.605 608.975, 759.455 607.761 C 760.305 606.548, 761 604.884, 761 604.063 C 761 601.398, 758.491 604.972, 755.955 611.250 C 754.677 614.412, 753.265 617, 752.816 617 C 751.518 617, 751.868 614.557, 753.468 612.441 C 754.276 611.374, 754.951 609.549, 754.968 608.386 C 754.986 607.223, 757.072 602.102, 759.603 597.007 C 762.847 590.479, 764.305 586.230, 764.540 582.621 C 764.723 579.805, 765.994 572.775, 767.363 567 C 768.732 561.225, 771.269 547.050, 772.999 535.500 C 777.573 504.978, 777.171 484.090, 771.489 457 C 764.455 423.467, 762.664 415.564, 759.815 405.500 C 756.280 393.008, 751.573 383.201, 744.932 374.491 C 742.420 371.196, 737.884 364.675, 734.851 360 C 731.818 355.325, 726.941 348.350, 724.012 344.500 C 721.084 340.650, 717.868 335.700, 716.866 333.500 C 715.864 331.300, 715.034 329.822, 715.022 330.216 C 715.010 330.609, 711.949 327.909, 708.221 324.216 C 698.736 314.819, 675.583 293.361, 669 287.865 C 665.975 285.340, 659.675 281.356, 655 279.012 C 650.325 276.668, 645.375 273.975, 644 273.028 C 642.625 272.080, 637 268.937, 631.500 266.042 C 626 263.148, 620.825 260.205, 620 259.504 C 616.661 256.664, 607.958 253.065, 602.887 252.429 C 599.924 252.057, 592.909 249.811, 587.297 247.438 C 574.014 241.822, 558.875 237, 554.523 237 C 552.624 237, 548.975 236.289, 546.415 235.420 C 543.452 234.414, 541.413 234.187, 540.804 234.796 C 540.237 235.363, 538.350 235.421, 536.173 234.938 C 534.153 234.489, 529.376 234.174, 525.559 234.238 L 518.618 234.352 522.559 235.656 M 352.364 244.961 C 343.129 251.200, 339.281 254.824, 346.600 250.389 C 352.711 246.686, 360.058 241.077, 358.864 241.027 C 358.514 241.012, 355.589 242.783, 352.364 244.961 M 442.193 242.561 C 439.381 243.743, 436.378 246.711, 437.180 247.513 C 437.715 248.049, 445.883 245.098, 447.750 243.695 C 450.866 241.353, 446.960 240.556, 442.193 242.561 M 523.547 297.077 C 514.833 298.397, 511.497 299.735, 508.006 303.307 C 506.290 305.063, 499.399 309.200, 492.693 312.500 L 480.500 318.500 480.500 323.995 L 480.500 329.489 475.631 332.495 C 464.801 339.180, 457.173 344.570, 451 349.900 C 447.425 352.986, 441.222 357.705, 437.216 360.385 C 428.269 366.372, 426.483 368.589, 428.348 371.397 C 429.491 373.119, 430.933 373.416, 439.084 373.602 C 444.263 373.721, 452.325 374.331, 457 374.958 C 461.675 375.585, 468.425 376.414, 472 376.799 C 475.649 377.193, 479.708 378.319, 481.254 379.368 C 484.575 381.620, 487.763 381.001, 503.415 375.061 C 533.560 363.622, 563.823 346.671, 568.070 338.846 C 569.227 336.714, 567.381 326.546, 565.210 323.093 C 558.148 311.862, 551.041 305.119, 540.497 299.646 C 534.272 296.415, 531.095 295.933, 523.547 297.077 M 261.399 318.547 C 261.047 319.947, 261.044 321.377, 261.390 321.724 C 262.149 322.482, 264.923 319.014, 264.968 317.250 C 265.028 314.906, 262.040 315.991, 261.399 318.547 M 313.500 325.957 C 310.750 329.191, 305.050 335.586, 300.834 340.168 C 296.618 344.751, 293.352 348.684, 293.577 348.909 C 294.115 349.448, 305.903 338.269, 308.485 334.770 C 309.593 333.269, 312.907 329.332, 315.849 326.020 C 318.791 322.709, 320.591 320.017, 319.849 320.039 C 319.107 320.060, 316.250 322.723, 313.500 325.957 M 514.008 449.949 C 512.908 450.663, 512.810 451.210, 513.637 452.037 C 515.235 453.635, 520.500 452.840, 520.500 451 C 520.500 449.233, 516.189 448.535, 514.008 449.949 M 610.500 534 C 606.651 534.689, 606.717 534.722, 612.250 534.858 C 615.511 534.939, 618 534.567, 618 534 C 618 532.909, 616.591 532.909, 610.500 534 M 496.500 552.554 C 490.450 553.246, 482.462 553.854, 478.750 553.906 C 475.038 553.958, 472 554.417, 472 554.928 C 472 555.438, 474.363 555.670, 477.250 555.443 C 498.864 553.743, 508.984 552.751, 512 552.035 L 515.500 551.205 511.500 551.251 C 509.300 551.276, 502.550 551.863, 496.500 552.554 M 539.500 554.667 C 535.100 554.812, 522.725 555.629, 512 556.483 C 501.275 557.336, 487.405 558.409, 481.177 558.868 C 467.697 559.860, 467.226 560.192, 464.026 570.969 C 460.413 583.140, 454.221 597.764, 449.972 604.162 C 447.787 607.451, 446 610.760, 446 611.517 C 446 613.973, 438.060 628.313, 435.094 631.212 C 433.507 632.764, 431.917 635.196, 431.560 636.617 C 431.203 638.038, 430.102 640.393, 429.113 641.850 C 428.124 643.308, 425.605 647.200, 423.514 650.500 C 416.105 662.195, 403.160 678.594, 395.880 685.509 C 385.527 695.341, 382.448 697.517, 369.719 703.990 C 363.548 707.128, 356.067 710.981, 353.093 712.553 L 347.686 715.410 356.163 719.455 C 360.826 721.680, 366.859 724.491, 369.570 725.703 C 374.566 727.935, 391.353 737.605, 400.500 743.520 C 412.007 750.960, 431.037 761.048, 441.282 765.137 C 447.181 767.492, 462.059 771.274, 462.741 770.592 C 462.988 770.346, 458.625 768.736, 453.048 767.015 C 444.365 764.335, 427 756.711, 427 755.579 C 427 755.376, 429.813 756.091, 433.250 757.167 C 444.448 760.674, 477.370 769.044, 478.449 768.658 C 479.027 768.451, 477.475 767.692, 475 766.972 C 472.525 766.252, 470.050 765.238, 469.500 764.719 C 468.862 764.117, 469.224 763.987, 470.500 764.359 C 491.883 770.606, 527.924 772.313, 551.500 768.196 C 558.650 766.947, 567.135 765.231, 570.357 764.381 C 573.578 763.532, 577.296 763.108, 578.620 763.441 C 580.132 763.820, 582.415 763.286, 584.763 762.003 C 589.473 759.430, 614.380 748.602, 623 745.380 C 637.394 740, 667.557 723.760, 667.349 721.502 C 667.299 720.953, 661.220 717.353, 653.841 713.502 C 646.462 709.651, 636.910 704.288, 632.614 701.586 C 624.434 696.438, 606.861 679.716, 599.261 669.847 C 587.403 654.451, 578.874 635.559, 573.923 613.726 C 572.274 606.452, 570.031 596.675, 568.940 592 C 567.849 587.325, 566.232 577.425, 565.348 570 C 564.464 562.575, 563.589 555.938, 563.402 555.250 C 563.063 553.999, 561.127 553.952, 539.500 554.667 M 748.548 622.907 C 747.212 625.490, 747.182 626, 748.366 626 C 749.145 626, 750.079 624.822, 750.440 623.382 C 751.395 619.579, 750.398 619.329, 748.548 622.907 M 659 648.759 C 659 649.204, 660.350 650.366, 662 651.341 C 663.650 652.316, 665 652.649, 665 652.082 C 665 651.515, 663.650 650.353, 662 649.500 C 660.350 648.647, 659 648.313, 659 648.759 M 764.500 657.757 C 761.750 663.095, 758.294 668.821, 756.820 670.481 C 754.600 672.981, 743.562 687.435, 739.622 693 C 739.038 693.825, 739.839 693.375, 741.401 692 C 748.974 685.335, 770.914 652.184, 769.836 649.034 C 769.651 648.494, 767.250 652.419, 764.500 657.757 M 343 718.025 C 343 719.864, 348.999 725, 351.146 725 C 352.209 725, 354.749 725.836, 356.790 726.858 C 358.830 727.880, 361.850 729.017, 363.500 729.384 L 366.500 730.051 364 728.041 C 361.433 725.977, 346.488 717.756, 344.250 717.177 C 343.563 716.999, 343 717.381, 343 718.025 M 640.347 741.520 C 637.514 742.815, 634.900 744.354, 634.538 744.938 C 633.564 746.515, 634.556 746.258, 639.889 743.556 C 642.738 742.113, 645.590 741.342, 646.856 741.673 C 648.395 742.075, 649 741.777, 649 740.617 C 649 738.436, 646.528 738.694, 640.347 741.520 M 634.137 748.140 C 630.638 749.772, 627.961 751.295, 628.189 751.523 C 628.873 752.207, 640.432 747.205, 640.814 746.059 C 641.251 744.748, 641.727 744.599, 634.137 748.140 M 682.724 751.052 C 679.026 753.768, 676 756.269, 676 756.610 C 676 757.347, 679.962 754.863, 685.500 750.654 C 687.700 748.982, 689.688 747.476, 689.917 747.307 C 690.146 747.138, 690.134 746.801, 689.891 746.557 C 689.647 746.314, 686.422 748.337, 682.724 751.052 M 413.444 748.910 C 414.198 750.130, 423.989 755.344, 424.524 754.810 C 424.702 754.631, 422.125 752.977, 418.798 751.133 C 415.470 749.290, 413.061 748.289, 413.444 748.910 M 485 806 C 486.375 806.440, 488.625 806.814, 490 806.830 C 492.273 806.857, 492.318 806.781, 490.500 806 C 489.400 805.527, 487.150 805.154, 485.500 805.170 C 482.575 805.199, 482.562 805.219, 485 806" stroke="none" fill="#f8f8fb" fill-rule="evenodd"/></svg>